HIERARCHY
ROOT Hips
{
	OFFSET -3.958830 18.904000 13.208200
	CHANNELS 6 Xposition Yposition Zposition Zrotation Yrotation Xrotation 
	JOINT LHipJoint
	{
		OFFSET 0.000000 0.000000 0.000000
		CHANNELS 3 Zrotation Yrotation Xrotation
		JOINT LeftUpLeg
		{
			OFFSET 1.800000 -1.400000 0.085000
			CHANNELS 3 Zrotation Yrotation Xrotation
			JOINT LeftLeg
			{
				OFFSET 2.215000 -6.000000 0.000000
				CHANNELS 3 Zrotation Yrotation Xrotation
				JOINT LeftFoot
				{
					OFFSET 2.500000 -6.900000 0.000000
					CHANNELS 3 Zrotation Yrotation Xrotation
					JOINT LeftToeBase
					{
						OFFSET 0.200000 -0.500000 1.950000
						CHANNELS 3 Zrotation Yrotation Xrotation
						End Site
						{
							OFFSET 0.000000 0.000000 0.000000
						}
					}
				}
			}
		}
	}
	JOINT RHipJoint
	{
		OFFSET 0.000000 0.000000 0.000000
		CHANNELS 3 Zrotation Yrotation Xrotation
		JOINT RightUpLeg
		{
			OFFSET -1.800000 -1.400000 0.085000
			CHANNELS 3 Zrotation Yrotation Xrotation
			JOINT RightLeg
			{
				OFFSET -2.215000 -6.000000 0.000000
				CHANNELS 3 Zrotation Yrotation Xrotation
				JOINT RightFoot
				{
					OFFSET -2.500000 -6.900000 0.000000
					CHANNELS 3 Zrotation Yrotation Xrotation
					JOINT RightToeBase
					{
						OFFSET -0.200000 -0.500000 1.950000
						CHANNELS 3 Zrotation Yrotation Xrotation
						End Site
						{
							OFFSET 0.000000 0.000000 0.000000
						}
					}
				}
			}
		}
	}
	JOINT LowerBack
	{
		OFFSET 0.000000 0.000000 0.000000
		CHANNELS 3 Zrotation Yrotation Xrotation
		JOINT Spine
		{
			OFFSET -0.087000 1.940000 -0.288900
			CHANNELS 3 Zrotation Yrotation Xrotation
			JOINT Spine1
			{
				OFFSET 0.000000 1.950000 0.060000
				CHANNELS 3 Zrotation Yrotation Xrotation
				JOINT Neck
				{
					OFFSET 0.000000 0.000000 0.000000
					CHANNELS 3 Zrotation Yrotation Xrotation
					JOINT Neck1
					{
						OFFSET 0.000000 1.600000 0.340000
						CHANNELS 3 Zrotation Yrotation Xrotation
						JOINT Head
						{
							OFFSET 0.000000 1.667000 -0.240000
							CHANNELS 3 Zrotation Yrotation Xrotation
							End Site
							{
								OFFSET 0.000000 0.000000 0.000000
							}
						}
					}
				}
				JOINT LeftShoulder
				{
					OFFSET 0.000000 0.000000 0.000000
					CHANNELS 3 Zrotation Yrotation Xrotation
					JOINT LeftArm
					{
						OFFSET 2.700000 1.550000 -0.730000
						CHANNELS 3 Zrotation Yrotation Xrotation
						JOINT LeftForeArm
						{
							OFFSET 5.450000 0.000000 0.000000
							CHANNELS 3 Zrotation Yrotation Xrotation
							JOINT LeftHand
							{
								OFFSET 3.450000 0.000000 0.000000
								CHANNELS 3 Zrotation Yrotation Xrotation
								JOINT LeftHandIndex1
								{
									OFFSET 0.750000 0.000000 0.000000
									CHANNELS 3 Zrotation Yrotation Xrotation
									End Site
									{
										OFFSET 0.000000 0.000000 0.000000
									}
								}
							}
						}
					}
				}
				JOINT RightShoulder
				{
					OFFSET 0.000000 0.000000 0.000000
					CHANNELS 3 Zrotation Yrotation Xrotation
					JOINT RightArm
					{
						OFFSET -2.700000 1.550000 -0.730000
						CHANNELS 3 Zrotation Yrotation Xrotation
						JOINT RightForeArm
						{
							OFFSET -5.450000 0.000000 0.000000
							CHANNELS 3 Zrotation Yrotation Xrotation
							JOINT RightHand
							{
								OFFSET -3.450000 0.000000 0.000000
								CHANNELS 3 Zrotation Yrotation Xrotation
								JOINT RightHandIndex1
								{
									OFFSET -0.750000 0.000000 0.000000
									CHANNELS 3 Zrotation Yrotation Xrotation
									End Site
									{
										OFFSET 0.000000 0.000000 0.000000
									}
								}
							}
						}
					}
				}
			}
		}
	}
}
MOTION
Frames: 12
Frame Time: 0.016667
0.250070 16.626330 -0.897240 -11.761896 -34.147089 4.721958 -15.313892 10.325949 1.719266 11.934662 -2.394142 -16.259765 -10.929147 4.701477 3.942361 -0.741562 3.965257 3.195150 0.517450 0.416140 0.365360 19.061421 -6.120601 8.321703 22.383588 33.243252 -65.329609 -12.168746 1.483604 63.350406 -1.398949 -8.458739 1.304201 0.407160 0.298230 0.300270 -5.598932 -1.832683 -9.359163 27.668723 -6.238232 22.538561 -5.619169 3.503220 7.704145 -3.748361 -5.735462 -6.973562 -14.719990 2.384905 31.848638 -5.629370 2.601510 -11.593790 -25.046417 -20.246034 -6.058061 -12.504617 -41.957468 -1.673050 29.983141 -36.197574 -9.897865 -3.964750 2.671236 0.337740 0.237060 0.050530 0.212590 30.184704 17.107181 10.854555 42.426874 -5.138190 -8.549427 -0.363582 26.071458 -1.578322 1.910056 -1.580630 -0.189850 0.309640 -0.023280 -0.102730 
0.250110 16.624220 -0.894310 -11.763964 -33.985754 4.622814 -15.308325 10.366059 1.725965 11.887719 -2.393029 -16.283601 -10.857036 4.723758 4.127549 -0.737485 3.954244 3.194145 0.517720 0.417350 0.363830 19.055960 -6.158872 8.281817 22.264614 32.955352 -65.203078 -11.667891 1.150922 63.076796 -1.381727 -8.392410 1.322287 0.404370 0.292460 0.300700 -5.582488 -1.850066 -9.336142 27.655485 -6.311328 22.583357 -5.566473 3.402215 7.568318 -3.754793 -5.751518 -6.925733 -14.774232 2.395987 31.873062 -5.544810 2.575920 -11.584170 -24.980091 -19.986824 -6.046555 -12.835922 -41.862747 -1.555148 29.691851 -36.325677 -9.822893 -3.959333 2.680575 0.334980 0.233210 0.051020 0.209670 30.143027 16.886212 10.741524 42.424352 -5.155922 -8.558417 -0.070362 26.040186 -1.527635 1.915308 -1.580993 -0.183460 0.302060 -0.023020 -0.101660 
0.249210 16.619510 -0.890500 -11.734320 -33.773505 4.556096 -15.300750 10.426009 1.738114 11.790519 -2.405915 -16.462878 -10.770169 4.773165 4.486144 -0.734654 3.951338 3.199124 0.502040 0.399340 0.345470 19.047654 -6.210720 8.223369 22.139135 32.527599 -64.986954 -10.857170 0.662000 62.410714 -1.337985 -8.251689 1.368960 0.394560 0.307340 0.297890 -5.555570 -1.887651 -9.300735 27.556954 -6.386333 22.537338 -5.401885 3.230515 7.300985 -3.816175 -5.814934 -6.865637 -14.902192 2.498039 31.829572 -5.290150 2.512180 -11.211360 -24.945472 -19.532936 -6.004027 -13.352364 -41.591739 -1.362849 29.172547 -36.541870 -9.678428 -3.961488 2.685822 0.327860 0.238630 0.038800 0.211580 30.268488 16.517082 10.577348 42.141010 -5.200804 -8.483071 0.415520 25.788540 -1.434327 1.921067 -1.578528 -0.187910 0.304000 -0.014690 -0.095840 
0.249010 16.614930 -0.888960 -11.772166 -33.687577 4.618842 -15.294123 10.459783 1.753562 11.812227 -2.430534 -16.722397 -10.798728 4.843614 4.839922 -0.723954 3.956546 3.197438 0.487880 0.385760 0.327940 19.042672 -6.242231 8.188032 21.958076 32.359573 -64.916674 -9.536693 -0.053223 61.781399 -1.294760 -8.108944 1.415573 0.384280 0.318720 0.295150 -5.539761 -1.899990 -9.281982 27.499822 -6.364441 22.412219 -5.246884 3.199239 7.099025 -3.824672 -5.828234 -6.845253 -14.933794 2.575559 31.888223 -5.007030 2.459930 -10.796030 -24.976979 -19.181329 -5.923191 -14.017500 -41.274479 -1.180104 28.718994 -36.765522 -9.568637 -3.960631 2.693480 0.317170 0.242670 0.027560 0.211740 30.351027 16.281910 10.450478 42.036345 -5.201041 -8.338710 0.633793 25.203564 -1.383052 1.934614 -1.575148 -0.187260 0.301020 -0.008330 -0.088390 
0.248810 16.609980 -0.887540 -11.906523 -33.615849 4.824779 -15.285438 10.470519 1.773672 11.967728 -2.464918 -17.057087 -10.919027 4.929743 5.173347 -0.712979 3.977548 3.192030 0.475080 0.371790 0.311310 19.042334 -6.267236 8.159067 21.908773 32.278818 -64.800627 -8.041127 -0.815217 60.815582 -1.241959 -7.912915 1.484159 0.375030 0.333100 0.290780 -5.536758 -1.880972 -9.270458 27.580350 -6.249679 22.114828 -5.164076 3.277591 6.997144 -3.752674 -5.727147 -6.861180 -14.748933 2.631109 32.077384 -4.665230 2.458670 -10.341220 -24.924185 -18.930458 -5.770150 -14.988380 -40.956442 -0.948132 28.430712 -37.019183 -9.560848 -3.958077 2.693662 0.309280 0.248420 0.015850 0.216200 30.184003 16.124054 10.316668 42.418056 -5.142724 -8.177332 0.519202 24.334069 -1.383860 1.950119 -1.563597 -0.190440 0.302460 -0.004380 -0.082490 
0.249160 16.605160 -0.888070 -12.115528 -33.568479 5.050872 -15.274604 10.480343 1.805774 12.254280 -2.500231 -17.403878 -11.115867 5.034851 5.526333 -0.705276 4.011674 3.171094 0.471590 0.368100 0.307400 19.040096 -6.305954 8.111285 21.862255 32.132513 -64.528281 -6.041804 -1.790472 59.371983 -1.181509 -7.641766 1.570099 0.368860 0.332370 0.292350 -5.534013 -1.842365 -9.257009 27.693375 -6.129973 21.839844 -5.098767 3.378523 7.032670 -3.647552 -5.547054 -6.905081 -14.412890 2.638479 32.355459 -4.531260 2.565830 -10.263390 -24.651529 -18.780191 -5.527049 -16.076841 -40.614639 -0.803856 28.580600 -37.157327 -9.752118 -3.951969 2.693324 0.309240 0.248270 0.015460 0.214200 29.734852 16.065688 10.130385 43.223179 -4.824695 -8.025241 0.134988 23.380813 -1.421759 1.967837 -1.546038 -0.187000 0.297010 -0.001780 -0.082520 
0.249290 16.601620 -0.887040 -12.326414 -33.404836 5.228781 -15.262287 10.503941 1.843321 12.537544 -2.535381 -17.752738 -11.308645 5.151602 5.936068 -0.710040 4.061766 3.147629 0.465190 0.356230 0.309270 19.035578 -6.361726 8.038240 21.910870 31.770158 -64.016262 -4.352665 -2.588469 57.808370 -1.125192 -7.370386 1.654431 0.363080 0.333020 0.293690 -5.523649 -1.815925 -9.233698 27.795122 -6.085499 21.554094 -5.016000 3.356270 7.062845 -3.525113 -5.363155 -6.908763 -14.077009 2.658565 32.655397 -4.626510 2.768640 -10.339830 -24.441456 -18.615394 -5.278672 -17.190437 -40.294590 -0.679711 28.988798 -37.407187 -10.073267 -3.947260 2.678205 0.321060 0.248420 0.017980 0.210860 29.318018 15.954767 9.877387 43.972117 -4.293074 -7.787370 -0.345349 22.247010 -1.447717 1.984582 -1.520139 -0.194720 0.299950 0.003450 -0.089460 
0.249560 16.597580 -0.885660 -12.499684 -33.310714 5.436956 -15.251015 10.518063 1.880572 12.783565 -2.581806 -18.123593 -11.518032 5.267716 6.346563 -0.716745 4.108293 3.119906 0.461320 0.346860 0.315270 19.032409 -6.413554 7.970261 21.839325 31.459376 -63.663095 -2.829662 -3.248345 56.390659 -1.073927 -7.135505 1.724617 0.359600 0.326330 0.293930 -5.519070 -1.782372 -9.212135 27.889477 -6.085976 21.283559 -5.039116 3.324078 7.063984 -3.410311 -5.226770 -6.918276 -13.781289 2.699113 32.805698 -4.751370 2.967730 -10.456710 -24.444568 -18.604525 -5.103382 -17.657277 -39.920465 -0.757811 29.239972 -37.616998 -10.266323 -3.945105 2.670878 0.330010 0.246750 0.018730 0.201240 29.123338 15.957651 9.714235 44.641161 -3.854848 -7.601011 -0.982814 21.317447 -1.496319 1.998351 -1.503756 -0.199610 0.296450 0.009290 -0.099620 
0.249740 16.592990 -0.884420 -12.706728 -33.196409 5.718809 -15.241484 10.504593 1.912625 13.074581 -2.653523 -18.541746 -11.780498 5.395157 6.761789 -0.725011 4.170386 3.091501 0.455340 0.334110 0.325220 19.034716 -6.447726 7.919561 21.530661 31.371285 -63.854219 -1.451165 -3.889829 55.623194 -1.051074 -7.036736 1.751406 0.356990 0.325800 0.295990 -5.527890 -1.733463 -9.194796 28.115748 -6.155576 20.957923 -5.218876 3.277685 6.998417 -3.284046 -5.081344 -6.829490 -13.432452 2.662413 32.834239 -5.116960 3.195320 -10.524180 -24.439321 -18.510719 -5.063855 -17.826175 -39.793383 -0.730899 29.190864 -37.557895 -10.246043 -3.955361 2.658278 0.336990 0.251320 0.018950 0.193210 28.864987 15.813899 9.487414 45.438620 -3.391159 -7.424972 -1.604992 20.508993 -1.545046 2.010363 -1.487173 -0.208780 0.298900 0.014590 -0.110180 
0.251630 16.588220 -0.883150 -12.855791 -33.222081 5.951573 -15.234561 10.491539 1.939924 13.306054 -2.712209 -18.887109 -12.026266 5.520595 7.159239 -0.722895 4.223072 3.065441 0.446260 0.325390 0.326010 19.035776 -6.476326 7.881795 21.102631 31.341725 -64.126319 -0.246520 -4.425501 55.039288 -1.033128 -6.977423 1.766725 0.353520 0.325770 0.297960 -5.536523 -1.686828 -9.183854 28.297799 -6.168981 20.712750 -5.296346 3.298414 7.019198 -3.212016 -4.991876 -6.812608 -13.195492 2.582389 32.824214 -5.480170 3.337560 -10.427810 -24.498383 -18.596259 -5.038038 -17.670376 -39.726594 -0.798094 29.262363 -37.295932 -10.210703 -3.968518 2.654504 0.332650 0.257950 0.016690 0.185440 28.787081 15.877793 9.430798 45.917199 -3.145929 -7.305237 -2.314692 19.973977 -1.606676 2.019557 -1.483343 -0.210670 0.295850 0.020120 -0.113940 
0.253470 16.584560 -0.883530 -12.799273 -33.327140 5.938291 -15.231540 10.497863 1.948995 13.307183 -2.749822 -19.074141 -12.145597 5.632659 7.628760 -0.723432 4.262750 3.048154 0.436760 0.309220 0.327070 19.034020 -6.497225 7.874468 20.823853 31.349195 -64.291869 0.315069 -4.671892 54.889900 -1.028537 -6.978647 1.765643 0.344740 0.328500 0.304890 -5.536144 -1.663412 -9.186142 28.193180 -6.082236 20.656251 -5.255528 3.370521 7.220054 -3.126557 -4.820487 -6.927093 -12.859146 2.491677 33.018765 -5.757170 3.477730 -10.230030 -24.577815 -19.068674 -4.919715 -17.223168 -39.542032 -1.100952 29.657683 -36.953741 -10.304836 -3.983266 2.651821 0.332620 0.265960 0.013420 0.178830 28.734019 16.294879 9.561641 46.330321 -3.025839 -7.273741 -3.126399 19.638968 -1.683029 2.020948 -1.484580 -0.212670 0.290150 0.027400 -0.119460 
0.254490 16.580470 -0.883940 -12.688073 -33.390355 5.854884 -15.234603 10.487686 1.958989 13.351605 -2.792393 -19.189774 -12.427954 5.774497 8.049051 -0.713903 4.320070 3.026695 0.425760 0.300840 0.324830 19.032310 -6.487675 7.889769 20.752969 31.437465 -64.472526 0.170763 -4.622992 55.209868 -1.037201 -7.034133 1.749574 0.339330 0.332960 0.307030 -5.531716 -1.660394 -9.203214 27.985086 -6.056876 20.652854 -5.149971 3.361495 7.499801 -3.057700 -4.653798 -7.082681 -12.511106 2.417987 33.156888 -6.089760 3.665260 -10.102950 -24.659223 -19.660444 -4.747876 -16.542232 -39.204771 -1.593070 30.381170 -36.652372 -10.518031 -3.995934 2.642983 0.328070 0.274420 0.013310 0.175350 28.736683 16.811456 9.731613 46.488180 -2.885517 -7.189096 -3.751763 19.271802 -1.735992 2.024604 -1.483123 -0.214450 0.291470 0.031260 -0.119780 
